<svg width="25" height="24" viewBox="0 0 25 24" fill="none" xmlns="http://www.w3.org/2000/svg">
<g id="majesticons:home">
<path id="Vector" d="M20.5 19V10.5C20.5 10.3448 20.4639 10.1916 20.3944 10.0528C20.325 9.91393 20.2242 9.79315 20.1 9.7L13.1 4.45C12.9269 4.32018 12.7164 4.25 12.5 4.25C12.2836 4.25 12.0731 4.32018 11.9 4.45L4.9 9.7C4.7758 9.79315 4.675 9.91393 4.60557 10.0528C4.53614 10.1916 4.5 10.3448 4.5 10.5V19C4.5 19.2652 4.60536 19.5196 4.79289 19.7071C4.98043 19.8946 5.23478 20 5.5 20H9.5C9.76522 20 10.0196 19.8946 10.2071 19.7071C10.3946 19.5196 10.5 19.2652 10.5 19V16C10.5 15.7348 10.6054 15.4804 10.7929 15.2929C10.9804 15.1054 11.2348 15 11.5 15H13.5C13.7652 15 14.0196 15.1054 14.2071 15.2929C14.3946 15.4804 14.5 15.7348 14.5 16V19C14.5 19.2652 14.6054 19.5196 14.7929 19.7071C14.9804 19.8946 15.2348 20 15.5 20H19.5C19.7652 20 20.0196 19.8946 20.2071 19.7071C20.3946 19.5196 20.5 19.2652 20.5 19Z" stroke="#333333" stroke-width="1.5" stroke-linecap="round" stroke-linejoin="round"/>
</g>
</svg>
