<svg width="19" height="19" viewBox="0 0 19 19" fill="none" xmlns="http://www.w3.org/2000/svg">
<g id="ph:magnifying-glass">
<path id="Vector" d="M17.0451 16.205L13.3289 12.4896C14.406 11.1965 14.9431 9.53789 14.8285 7.85887C14.7139 6.17986 13.9563 4.60967 12.7135 3.47495C11.4706 2.34023 9.83817 1.72835 8.15568 1.76658C6.47319 1.80482 4.87021 2.49024 3.6802 3.68024C2.49019 4.87025 1.80477 6.47324 1.76653 8.15573C1.7283 9.83822 2.34018 11.4707 3.4749 12.7135C4.60962 13.9564 6.17981 14.7139 7.85883 14.8285C9.53785 14.9432 11.1964 14.4061 12.4895 13.329L16.2049 17.0451C16.2601 17.1003 16.3256 17.1441 16.3977 17.1739C16.4697 17.2038 16.547 17.2191 16.625 17.2191C16.703 17.2191 16.7803 17.2038 16.8523 17.1739C16.9244 17.1441 16.9899 17.1003 17.0451 17.0451C17.1002 16.99 17.144 16.9245 17.1739 16.8524C17.2037 16.7803 17.2191 16.7031 17.2191 16.625C17.2191 16.547 17.2037 16.4698 17.1739 16.3977C17.144 16.3256 17.1002 16.2601 17.0451 16.205ZM2.96875 8.31255C2.96875 7.25565 3.28216 6.22249 3.86933 5.34372C4.45651 4.46494 5.29109 3.78002 6.26754 3.37557C7.24398 2.97111 8.31843 2.86529 9.35501 3.07148C10.3916 3.27767 11.3438 3.78661 12.0911 4.53395C12.8384 5.28128 13.3474 6.23345 13.5536 7.27003C13.7598 8.30662 13.6539 9.38107 13.2495 10.3575C12.845 11.334 12.1601 12.1685 11.2813 12.7557C10.4026 13.3429 9.36939 13.6563 8.3125 13.6563C6.89573 13.6547 5.53744 13.0912 4.53563 12.0894C3.53383 11.0876 2.97032 9.72932 2.96875 8.31255Z" fill="#B5B5B5"/>
</g>
</svg>
